<?xml version="1.0" encoding="UTF-8"?><svg id="Layer_1" xmlns="http://www.w3.org/2000/svg" viewBox="0 0 4236.1 1758.54"><defs><style>.cls-1{fill:#d08aff;}.cls-1,.cls-2{stroke-width:0px;}</style></defs><path class="cls-1" d="M1907.37,49.15v1362.41H772.74l-432.14,346.99v-346.99H0V49.15h1907.37ZM136.24,1275.32h340.6v197.98l249.07-197.98h1045.22V185.39H136.24v1089.93ZM1498.65,525.99v136.24H408.72v-136.24h1089.93ZM1226.17,798.47v136.24H408.72v-136.24h817.45Z"/><path class="cls-2" d="M2085.74,406.65V59.36h146.36c25.47,0,48.78,4.22,69.95,12.65,21.16,8.44,39.36,20.34,54.57,35.72,15.21,15.38,26.95,33.73,35.23,55.07,8.26,21.33,12.4,44.74,12.4,70.2s-4.14,49.29-12.4,70.45c-8.27,21.17-20.02,39.44-35.23,54.82-15.22,15.38-33.32,27.29-54.33,35.72-21.01,8.43-44.4,12.65-70.2,12.65h-146.36ZM2170.57,348.11l-10.91-16.37h69.95c13.56,0,25.8-2.31,36.71-6.94,10.91-4.63,20.26-11.33,28.03-20.09,7.77-8.76,13.72-19.18,17.86-31.26,4.13-12.07,6.2-25.55,6.2-40.44s-2.07-28.36-6.2-40.44c-4.14-12.07-10.09-22.49-17.86-31.25-7.78-8.76-17.12-15.46-28.03-20.09s-23.15-6.95-36.71-6.95h-71.44l12.4-15.38v229.21Z"/><path class="cls-2" d="M2505.45,91.12c-15.22,0-27.04-3.55-35.47-10.67-8.43-7.11-12.65-17.28-12.65-30.51,0-12.23,4.29-22.16,12.9-29.77,8.6-7.6,20.34-11.41,35.23-11.41s26.05,3.56,34.48,10.67c8.43,7.12,12.65,17.29,12.65,30.52,0,12.24-4.22,22.16-12.65,29.76-8.43,7.62-19.93,11.41-34.48,11.41ZM2465.27,406.65V143.21h79.88v263.45h-79.88Z"/><path class="cls-2" d="M2740.61,520.76c-21.17,0-42.42-3.06-63.75-9.18-21.33-6.12-38.62-14.14-51.84-24.06l27.78-56.56c10.58,7.27,22.57,12.97,35.97,17.11,13.4,4.13,27.36,6.2,41.92,6.2,16.87,0,30.59-2.48,41.18-7.44,10.58-4.96,18.43-12.4,23.57-22.33,5.12-9.92,7.69-22.33,7.69-37.21v-43.66l14.88,2.97c-1.99,10.26-7.53,19.84-16.62,28.77-9.1,8.93-20.26,16.05-33.49,21.33-13.23,5.3-27.13,7.94-41.68,7.94-23.81,0-45.15-5.53-64-16.62-18.85-11.08-33.66-26.46-44.4-46.14-10.75-19.67-16.12-42.41-16.12-68.21s5.37-49.94,16.12-70.45c10.74-20.51,25.38-36.55,43.91-48.13,18.52-11.57,39.36-17.37,62.51-17.37,9.59,0,18.93,1.08,28.03,3.23,9.09,2.15,17.53,5.21,25.3,9.18,7.77,3.96,14.71,8.43,20.84,13.39,6.12,4.97,11.16,10.42,15.13,16.37,3.97,5.96,6.45,11.91,7.44,17.87l-16.37,4.96,2.98-59.54h75.91v241.62c0,21.51-3.22,40.68-9.67,57.55-6.45,16.87-15.88,31.09-28.28,42.67-12.4,11.57-27.37,20.42-44.9,26.54-17.54,6.12-37.54,9.18-60.03,9.18ZM2742.6,342.65c12.9,0,24.06-2.81,33.49-8.43,9.43-5.62,16.7-13.56,21.83-23.81,5.12-10.25,7.69-22.16,7.69-35.72s-2.57-26.45-7.69-36.71c-5.13-10.24-12.4-18.27-21.83-24.06-9.43-5.79-20.59-8.69-33.49-8.69s-22.99,2.9-32.25,8.69c-9.26,5.79-16.46,13.81-21.58,24.06-5.13,10.26-7.69,22.33-7.69,36.22s2.56,25.97,7.69,36.22c5.12,10.26,12.32,18.2,21.58,23.81,9.26,5.63,20.01,8.43,32.25,8.43Z"/><path class="cls-2" d="M2997.11,91.12c-15.22,0-27.04-3.55-35.47-10.67-8.43-7.11-12.65-17.28-12.65-30.51,0-12.23,4.29-22.16,12.9-29.77,8.6-7.6,20.34-11.41,35.23-11.41s26.05,3.56,34.48,10.67c8.43,7.12,12.65,17.29,12.65,30.52,0,12.24-4.22,22.16-12.65,29.76-8.43,7.62-19.93,11.41-34.48,11.41ZM2956.92,406.65V143.21h79.88v263.45h-79.88Z"/><path class="cls-2" d="M3086.91,213.16v-69.96h177.12v69.96h-177.12ZM3133.54,406.65V76.73h79.88v329.92h-79.88Z"/><path class="cls-2" d="M3379.12,411.61c-16.54,0-31.5-3.31-44.9-9.92-13.39-6.61-23.98-15.79-31.75-27.54-7.78-11.74-11.66-25.55-11.66-41.42,0-13.56,2.48-25.47,7.44-35.72,4.96-10.25,12.32-18.77,22.08-25.55,9.75-6.78,21.99-11.9,36.71-15.38,14.71-3.48,31.83-5.22,51.35-5.22h79.88l-4.47,50.11h-73.43c-6.94,0-13.07.58-18.36,1.74-5.3,1.16-9.76,2.97-13.4,5.46-3.64,2.48-6.37,5.38-8.19,8.68-1.82,3.31-2.73,7.28-2.73,11.91,0,4.96,1.32,9.26,3.97,12.9,2.64,3.64,6.2,6.45,10.67,8.43s9.67,2.97,15.63,2.97c8.6,0,16.78-1.4,24.56-4.21,7.77-2.81,14.71-6.86,20.84-12.16,6.12-5.28,10.99-11.41,14.64-18.36l13.89,35.72c-6.95,11.24-15.3,21.17-25.06,29.77-9.76,8.6-20.34,15.38-31.75,20.34-11.41,4.97-23.4,7.44-35.97,7.44ZM3447.59,406.65v-161.73c0-13.56-3.72-23.57-11.16-30.02-7.44-6.45-17.78-9.68-31.01-9.68s-24.39,2.41-34.48,7.19c-10.09,4.8-19.77,12.66-29.02,23.57l-47.63-46.14c15.88-16.2,34.06-28.94,54.57-38.2,20.51-9.26,42.83-13.9,66.98-13.9,22.16,0,41.34,3.31,57.55,9.93,16.2,6.62,28.78,16.71,37.71,30.26,8.93,13.57,13.39,30.77,13.39,51.6v177.12h-76.9Z"/><path class="cls-2" d="M3587.99,406.65V39.52h79.88v367.14h-79.88Z"/><path class="cls-2" d="M2265.34,913.94c-26.13,0-50.2-4.39-72.19-13.15-22-8.75-41.02-21.16-57.05-37.21-16.05-16.04-28.45-35.05-37.21-57.06-8.77-21.99-13.15-46.05-13.15-72.18s4.54-49.61,13.64-71.44c9.09-21.83,21.91-40.85,38.45-57.06,16.54-16.2,35.97-28.77,58.3-37.7,22.32-8.93,46.55-13.4,72.68-13.4,16.53,0,32.74,2.15,48.62,6.45,15.87,4.3,30.67,10.67,44.4,19.1,13.72,8.44,25.55,18.61,35.47,30.51l-52.09,59.04c-10.26-11.24-21.75-20.01-34.48-26.29-12.74-6.29-26.88-9.43-42.42-9.43-13.23,0-25.72,2.31-37.46,6.94-11.74,4.64-21.91,11.41-30.51,20.34-8.6,8.93-15.38,19.51-20.34,31.75-4.96,12.24-7.44,26.14-7.44,41.67s2.4,29.03,7.19,41.43c4.79,12.4,11.74,22.99,20.84,31.75,9.09,8.77,20.01,15.47,32.74,20.09,12.73,4.64,26.87,6.95,42.42,6.95,10.25,0,20.09-1.41,29.52-4.22,9.43-2.81,18.27-6.86,26.54-12.15,8.26-5.29,15.38-11.24,21.33-17.87l41.18,65.49c-7.94,8.93-18.77,17.04-32.5,24.31-13.73,7.28-28.95,12.99-45.64,17.12-16.71,4.13-33.66,6.2-50.85,6.2Z"/><path class="cls-2" d="M2566.98,913.94c-27.13,0-51.43-5.87-72.93-17.61-21.5-11.74-38.37-27.95-50.61-48.62-12.24-20.67-18.35-44.08-18.35-70.21s6.11-50.52,18.35-71.19c12.23-20.67,29.1-36.88,50.61-48.62,21.5-11.74,45.81-17.62,72.93-17.62s51.84,5.88,73.18,17.62c21.33,11.74,38.11,27.95,50.35,48.62,12.23,20.67,18.36,44.41,18.36,71.19s-6.12,49.53-18.36,70.21c-12.24,20.67-29.02,36.88-50.35,48.62-21.33,11.74-45.73,17.61-73.18,17.61ZM2566.98,845.48c11.91,0,22.4-2.98,31.5-8.93,9.09-5.96,16.29-14.06,21.58-24.31,5.29-10.25,7.77-21.83,7.44-34.73.32-13.56-2.16-25.55-7.44-35.97-5.3-10.42-12.49-18.52-21.58-24.31-9.1-5.78-19.6-8.68-31.5-8.68s-22,2.97-31.26,8.93c-9.26,5.96-16.54,14.06-21.83,24.31-5.3,10.26-7.94,22.16-7.94,35.72s2.64,24.48,7.94,34.73c5.29,10.26,12.57,18.36,21.83,24.31,9.26,5.95,19.68,8.93,31.26,8.93Z"/><path class="cls-2" d="M2760.96,908.98v-263.45h75.91l2.98,53.58-16.37,5.96c3.63-11.91,10.17-22.74,19.6-32.5,9.43-9.76,20.75-17.62,33.99-23.57,13.23-5.96,27.12-8.94,41.67-8.94,19.85,0,36.54,4.06,50.11,12.16,13.56,8.11,23.73,20.17,30.51,36.22,6.78,16.05,10.17,35.81,10.17,59.28v161.24h-79.88v-155.29c0-10.58-1.49-19.35-4.46-26.29-2.97-6.95-7.44-12.07-13.39-15.38-5.95-3.3-13.39-4.79-22.33-4.47-6.94,0-13.39,1.08-19.35,3.23-5.96,2.15-11.16,5.29-15.63,9.42-4.46,4.15-7.86,8.86-10.17,14.14-2.32,5.3-3.47,11.24-3.47,17.86v156.78h-79.88Z"/><path class="cls-2" d="M3051.69,715.49v-69.96h177.11v69.96h-177.11ZM3098.32,908.98v-329.92h79.88v329.92h-79.88Z"/><path class="cls-2" d="M3397.48,913.94c-29.11,0-54.5-5.78-76.16-17.36-21.66-11.57-38.37-27.54-50.11-47.88-11.74-20.34-17.61-43.57-17.61-69.71,0-20.5,3.3-39.27,9.92-56.31,6.61-17.03,15.95-31.67,28.03-43.91,12.07-12.23,26.29-21.74,42.67-28.52,16.37-6.78,34.31-10.17,53.83-10.17s35.39,3.31,50.61,9.93c15.21,6.62,28.44,15.87,39.69,27.78,11.24,11.9,19.84,25.97,25.8,42.17,5.95,16.2,8.76,33.9,8.43,53.09l-.5,21.83h-209.36l-11.91-45.15h156.28l-8.43,8.93v-9.92c-.67-8.26-3.23-15.46-7.69-21.58-4.46-6.12-10.26-11-17.36-14.64-7.12-3.64-15.13-5.46-24.06-5.46-13.23,0-24.39,2.56-33.49,7.68-9.1,5.13-15.96,12.49-20.59,22.08-4.64,9.6-6.95,21.51-6.95,35.72s3.06,26.79,9.18,37.7c6.12,10.91,15.05,19.35,26.79,25.3,11.74,5.96,25.71,8.93,41.92,8.93,10.91,0,20.84-1.65,29.77-4.96,8.93-3.3,18.52-8.93,28.78-16.87l37.21,52.59c-10.26,8.61-21.17,15.8-32.74,21.59-11.58,5.79-23.4,10.09-35.47,12.9-12.08,2.81-24.23,4.21-36.47,4.21Z"/><path class="cls-2" d="M3563.18,908.98v-263.45h75.91l2.98,53.58-16.37,5.96c3.63-11.91,10.17-22.74,19.6-32.5,9.43-9.76,20.75-17.62,33.99-23.57,13.23-5.96,27.12-8.94,41.67-8.94,19.85,0,36.54,4.06,50.11,12.16,13.56,8.11,23.73,20.17,30.51,36.22,6.78,16.05,10.17,35.81,10.17,59.28v161.24h-79.88v-155.29c0-10.58-1.49-19.35-4.46-26.29-2.97-6.95-7.44-12.07-13.39-15.38-5.95-3.3-13.39-4.79-22.33-4.47-6.94,0-13.39,1.08-19.35,3.23-5.96,2.15-11.16,5.29-15.63,9.42-4.46,4.15-7.86,8.86-10.17,14.14-2.32,5.3-3.47,11.24-3.47,17.86v156.78h-79.88Z"/><path class="cls-2" d="M3853.91,715.49v-69.96h177.11v69.96h-177.11ZM3900.54,908.98v-329.92h79.88v329.92h-79.88Z"/><path class="cls-2" d="M2085.74,1421.96v-347.29h75.9l126.02,204.9-53.58-.5,127.5-204.4h73.43v347.29h-82.36v-105.18c0-30.43.74-57.8,2.23-82.11,1.49-24.31,4.04-48.2,7.69-71.69l9.43,25.8-95.75,148.34h-33.74l-93.77-147.35,9.42-26.79c3.97,22.17,6.7,45.07,8.19,68.71,1.49,23.65,2.23,52.02,2.23,85.09v105.18h-82.85Z"/><path class="cls-2" d="M2585.33,1426.91c-16.54,0-31.5-3.31-44.9-9.92-13.4-6.61-23.99-15.79-31.75-27.54-7.78-11.74-11.66-25.55-11.66-41.42,0-13.56,2.48-25.47,7.44-35.72,4.96-10.25,12.32-18.77,22.08-25.55,9.75-6.78,21.99-11.9,36.71-15.38,14.71-3.48,31.83-5.22,51.35-5.22h79.88l-4.46,50.11h-73.43c-6.94,0-13.07.58-18.36,1.74-5.29,1.16-9.76,2.97-13.39,5.46-3.64,2.48-6.37,5.38-8.19,8.68-1.82,3.31-2.73,7.28-2.73,11.91,0,4.96,1.32,9.26,3.97,12.9,2.64,3.64,6.2,6.45,10.67,8.43s9.67,2.97,15.63,2.97c8.6,0,16.78-1.4,24.56-4.21,7.77-2.81,14.71-6.86,20.84-12.16,6.12-5.28,10.99-11.41,14.64-18.36l13.89,35.72c-6.95,11.24-15.3,21.17-25.06,29.77-9.76,8.6-20.34,15.38-31.75,20.34-11.41,4.97-23.4,7.44-35.97,7.44ZM2653.8,1421.96v-161.73c0-13.56-3.72-23.57-11.16-30.02-7.44-6.45-17.79-9.68-31.01-9.68s-24.4,2.41-34.48,7.19c-10.09,4.8-19.77,12.66-29.02,23.57l-47.63-46.14c15.87-16.2,34.06-28.94,54.57-38.2,20.5-9.26,42.83-13.9,66.98-13.9,22.16,0,41.34,3.31,57.55,9.93,16.2,6.62,28.78,16.71,37.71,30.26,8.93,13.57,13.39,30.77,13.39,51.6v177.12h-76.9Z"/><path class="cls-2" d="M2794.19,1421.96v-263.45h75.91l2.98,53.58-16.37,5.96c3.63-11.91,10.17-22.74,19.6-32.5,9.43-9.76,20.75-17.62,33.99-23.57,13.23-5.96,27.12-8.94,41.67-8.94,19.85,0,36.54,4.06,50.11,12.16,13.56,8.11,23.73,20.17,30.51,36.22,6.78,16.05,10.17,35.81,10.17,59.28v161.24h-79.88v-155.29c0-10.58-1.49-19.35-4.46-26.29-2.97-6.95-7.44-12.07-13.39-15.38-5.95-3.3-13.39-4.79-22.33-4.47-6.94,0-13.39,1.08-19.35,3.23-5.96,2.15-11.16,5.29-15.63,9.42-4.46,4.15-7.86,8.86-10.17,14.14-2.32,5.3-3.47,11.24-3.47,17.86v156.78h-79.88Z"/><path class="cls-2" d="M3181.66,1426.91c-16.54,0-31.5-3.31-44.9-9.92-13.4-6.61-23.99-15.79-31.75-27.54-7.78-11.74-11.66-25.55-11.66-41.42,0-13.56,2.48-25.47,7.44-35.72,4.96-10.25,12.32-18.77,22.08-25.55,9.75-6.78,21.99-11.9,36.71-15.38,14.71-3.48,31.83-5.22,51.35-5.22h79.88l-4.46,50.11h-73.43c-6.94,0-13.07.58-18.36,1.74-5.29,1.16-9.76,2.97-13.39,5.46-3.64,2.48-6.37,5.38-8.19,8.68-1.82,3.31-2.73,7.28-2.73,11.91,0,4.96,1.32,9.26,3.97,12.9,2.64,3.64,6.2,6.45,10.67,8.43s9.67,2.97,15.63,2.97c8.6,0,16.78-1.4,24.56-4.21,7.77-2.81,14.71-6.86,20.84-12.16,6.12-5.28,10.99-11.41,14.64-18.36l13.89,35.72c-6.95,11.24-15.3,21.17-25.06,29.77-9.76,8.6-20.34,15.38-31.75,20.34-11.41,4.97-23.4,7.44-35.97,7.44ZM3250.13,1421.96v-161.73c0-13.56-3.72-23.57-11.16-30.02-7.44-6.45-17.79-9.68-31.01-9.68s-24.4,2.41-34.48,7.19c-10.09,4.8-19.77,12.66-29.02,23.57l-47.63-46.14c15.87-16.2,34.06-28.94,54.57-38.2,20.5-9.26,42.83-13.9,66.98-13.9,22.16,0,41.34,3.31,57.55,9.93,16.2,6.62,28.78,16.71,37.71,30.26,8.93,13.57,13.39,30.77,13.39,51.6v177.12h-76.9Z"/><path class="cls-2" d="M3511.09,1536.06c-21.17,0-42.42-3.06-63.75-9.18-21.33-6.12-38.62-14.14-51.84-24.06l27.78-56.56c10.58,7.27,22.58,12.97,35.97,17.11,13.39,4.13,27.36,6.2,41.92,6.2,16.87,0,30.59-2.48,41.18-7.44,10.58-4.96,18.43-12.4,23.57-22.33,5.12-9.92,7.69-22.33,7.69-37.21v-43.66l14.88,2.97c-1.99,10.26-7.53,19.84-16.62,28.77-9.1,8.93-20.26,16.05-33.49,21.33-13.23,5.3-27.12,7.94-41.67,7.94-23.81,0-45.15-5.53-64-16.62-18.85-11.08-33.66-26.46-44.4-46.14-10.75-19.67-16.12-42.41-16.12-68.21s5.37-49.94,16.12-70.45c10.74-20.51,25.38-36.55,43.91-48.13,18.52-11.57,39.36-17.37,62.51-17.37,9.59,0,18.93,1.08,28.03,3.23,9.09,2.15,17.53,5.21,25.3,9.18,7.77,3.96,14.71,8.43,20.84,13.39,6.12,4.97,11.16,10.42,15.13,16.37,3.97,5.96,6.45,11.91,7.44,17.87l-16.37,4.96,2.98-59.54h75.91v241.62c0,21.51-3.23,40.68-9.68,57.55-6.45,16.87-15.87,31.09-28.28,42.67-12.4,11.57-27.37,20.42-44.9,26.54-17.53,6.12-37.54,9.18-60.03,9.18ZM3513.07,1357.95c12.9,0,24.06-2.81,33.49-8.43,9.43-5.62,16.7-13.56,21.83-23.81,5.12-10.25,7.69-22.16,7.69-35.72s-2.57-26.45-7.69-36.71c-5.13-10.24-12.4-18.27-21.83-24.06-9.42-5.79-20.59-8.69-33.49-8.69s-22.99,2.9-32.25,8.69c-9.26,5.79-16.46,13.81-21.58,24.06-5.13,10.26-7.69,22.33-7.69,36.22s2.56,25.97,7.69,36.22c5.12,10.26,12.32,18.2,21.58,23.81,9.26,5.63,20.01,8.43,32.25,8.43Z"/><path class="cls-2" d="M3848.45,1426.91c-29.11,0-54.5-5.78-76.16-17.36-21.66-11.57-38.37-27.54-50.11-47.88-11.74-20.34-17.61-43.57-17.61-69.71,0-20.5,3.3-39.27,9.92-56.31,6.61-17.03,15.95-31.67,28.03-43.91,12.07-12.23,26.29-21.74,42.67-28.52,16.37-6.78,34.31-10.17,53.83-10.17s35.39,3.31,50.61,9.93c15.21,6.62,28.44,15.87,39.69,27.78,11.24,11.9,19.84,25.97,25.8,42.17,5.95,16.2,8.76,33.9,8.43,53.09l-.5,21.83h-209.36l-11.91-45.15h156.28l-8.43,8.93v-9.92c-.67-8.26-3.23-15.46-7.69-21.58-4.46-6.12-10.26-11-17.36-14.64-7.12-3.64-15.13-5.46-24.06-5.46-13.23,0-24.39,2.56-33.49,7.68-9.1,5.13-15.96,12.49-20.59,22.08-4.64,9.6-6.95,21.51-6.95,35.72s3.06,26.79,9.18,37.7c6.12,10.91,15.05,19.35,26.79,25.3,11.74,5.96,25.71,8.93,41.92,8.93,10.91,0,20.84-1.65,29.77-4.96,8.93-3.3,18.52-8.93,28.78-16.87l37.21,52.59c-10.26,8.61-21.17,15.8-32.74,21.59-11.58,5.79-23.4,10.09-35.47,12.9-12.08,2.81-24.23,4.21-36.47,4.21Z"/><path class="cls-2" d="M4014.15,1421.96v-263.45h75.91l3.47,85.83-14.88-16.86c4.29-13.9,10.91-26.46,19.84-37.71,8.93-11.24,19.6-20.17,32-26.79,12.4-6.61,25.38-9.93,38.94-9.93,5.96,0,11.49.42,16.62,1.24,5.12.83,9.67,2.07,13.64,3.72l-21.33,87.82c-3.64-1.99-8.52-3.72-14.64-5.22-6.12-1.49-12.49-2.23-19.1-2.23-7.28,0-13.98,1.24-20.09,3.72-6.12,2.48-11.41,6.04-15.87,10.67-4.46,4.64-7.94,10.09-10.42,16.37-2.48,6.29-3.72,13.39-3.72,21.33v131.47h-80.37Z"/></svg>