<svg id="Layer_1" data-name="Layer 1" xmlns="http://www.w3.org/2000/svg" viewBox="0 0 6878.27 1075.93"><defs><style>.cls-1{fill:#d08aff;}</style></defs><title>logo-2</title><path class="cls-1" d="M1200.53,0V857.52H486.38l-272,218.41V857.52H0V0ZM85.75,771.77H300.13V896.38L456.9,771.77h657.88v-686H85.75ZM943.28,300.13v85.76h-686V300.13ZM771.77,471.64v85.75H257.26V471.64Z"/><path d="M1373.07,46.62h89.1v341.9h-89.1Z"/><path d="M1776.09,388.52H1687V241.92c0-22.8-15.54-38.34-37.82-38.34s-37.3,15.54-37.3,38.34v146.6h-89.1v-259h81.33v21.23c19.17-18.13,43.52-27.45,73-27.45,60.09,0,98.95,41.44,98.95,105.68Z"/><path d="M2085.34,388.52h-89.1V241.92c0-22.8-15.54-38.34-37.82-38.34s-37.29,15.54-37.29,38.34v146.6H1832V0h89.1V147.64c18.13-16.06,40.92-24.35,67.34-24.35,57.5,0,96.87,42.48,96.87,105.68Z"/><path d="M2269.23,123.29c77.19-1.55,143,61.64,141.42,135.72,1.56,74.08-64.23,137.28-141.42,135.72-77.18,1.56-142.45-61.64-140.9-135.72C2126.78,184.93,2192.05,121.74,2269.23,123.29Zm.52,81.85c-29.53,0-50.25,22.27-50.25,53.87,0,32.64,20.72,53.88,50.25,53.88,29,0,49.73-22.8,49.73-53.88S2298.24,205.14,2269.75,205.14Z"/><path d="M2453.65,129.51h89.1V275.07c0,22.28,15.54,37.82,37.81,37.82,21.24,0,37.3-15.54,37.3-37.82V129.51H2707V267.82c0,76.15-53.36,126.91-126.4,126.91S2453.65,344,2453.65,267.82Z"/><path d="M3029.68,0V388.52h-81.33V361.58c-16,22.27-40.92,33.15-74.07,33.15-72.53,0-124.33-56.46-124.33-135.2s52.84-136.24,124.33-136.24c27.45,0,49.21,7.77,66.3,23.83V0ZM2891.89,204.1c-27.46,0-50.77,20.2-50.77,54.91s22.28,54.91,50.77,54.91c27.45,0,50.25-19.17,50.25-54.39S2919.34,204.1,2891.89,204.1Z"/><path d="M3397.48,388.52H3237.93V46.62h123.29c65.79,0,115.52,41.44,115.52,101,0,22.79-6.73,42-20.72,57.5,35.74,14.5,57,42.47,57,81.84C3513,346,3463.27,388.52,3397.48,388.52ZM3323.4,121.74v60.09h32.12c21.24,0,34.19-11.92,34.19-30.05s-12.95-30-34.19-30Zm68.38,131.57H3323.4V313.4h68.38c21.24,0,34.19-9.84,34.19-30S3413,253.31,3391.78,253.31Z"/><path d="M3633.7,290.09c9.84,19.69,29,29.53,58,29.53,23.31,0,45.58-6.73,67.86-20.2L3791.7,360c-30.57,23.31-65.28,34.7-103.09,34.7-84.44,0-145.56-59.05-145.56-135.72,0-76.15,61.12-135.72,138.31-135.72,74.59,0,123.8,56,123.8,122.77a174,174,0,0,1-5.69,44Zm87-58c-.52-23.31-19.69-38.85-43-38.85-22.27,0-40.41,14-47.14,38.85Z"/><path d="M4103.54,388.52h-89.1V241.92c0-22.8-15.54-38.34-37.81-38.34s-37.3,15.54-37.3,38.34v146.6h-89.1V0h89.1V147.64c18.13-16.06,40.92-24.35,67.34-24.35,57.5,0,96.87,42.48,96.87,105.68Z"/><path d="M4237.19,290.09c9.84,19.69,29,29.53,58,29.53,23.31,0,45.58-6.73,67.86-20.2L4395.18,360c-30.56,23.31-65.27,34.7-103.08,34.7-84.44,0-145.57-59.05-145.57-135.72,0-76.15,61.13-135.72,138.32-135.72,74.59,0,123.8,56,123.8,122.77a174,174,0,0,1-5.69,44Zm87-58c-.52-23.31-19.69-38.85-43-38.85-22.28,0-40.41,14-47.14,38.85Z"/><path d="M4531.42,290.09c9.85,19.69,29,29.53,58,29.53,23.31,0,45.59-6.73,67.86-20.2L4689.42,360c-30.56,23.31-65.27,34.7-103.09,34.7-84.43,0-145.56-59.05-145.56-135.72,0-76.15,61.13-135.72,138.31-135.72,74.6,0,123.81,56,123.81,122.77a173.55,173.55,0,0,1-5.7,44Zm87-58c-.52-23.31-19.68-38.85-43-38.85-22.27,0-40.4,14-47.13,38.85Z"/><path d="M4919.94,208.24H4898.7c-40.92,0-61.64,18.65-61.64,62.17V388.52H4748v-259h81.33V157c16.05-20.2,38.85-31.6,65.27-31.6a79,79,0,0,1,25.38,4.15Z"/><path d="M1433.16,740.46c20.2,26.94,41.44,44,76.14,44,23.32,0,35.23-8.29,35.23-24.87,0-15-7.77-19.68-34.71-31.6l-35.22-15.54c-56.47-24.86-86.51-57-86.51-103.09,0-60.6,49.73-101,119.66-101,56.47,0,96.35,26.94,117.07,68.9l-59.57,45.58c-16.58-24.86-32.12-36.26-56.46-36.26-18.65,0-30.57,7.25-30.57,21.76,0,12.43,7.26,19.17,29.53,28l39.37,16.58c59.57,24.86,87.55,54.91,87.55,103.08,0,66.31-54.4,106.72-125.37,106.72-61.64,0-111.37-29.53-136.23-76.67Z"/><path d="M1946.52,597.49l-121.74,273C1798.36,929,1765.21,956,1711.85,956a210.54,210.54,0,0,1-49.73-6.22V875.15c16.58.52,26.42,1,30.05,1,24.34,0,39.89-5.7,50.76-30.57l4.15-8.8-94.8-239.33h94.8l49.73,145.56,55.43-145.56Z"/><path d="M1986.92,760.15c22.28,21.24,46.1,32.12,71.49,32.12,15,0,22.79-3.63,22.79-11.4,0-5.7-4.14-8.29-15-13l-29-11.92c-51.29-20.72-75.11-42.47-75.11-83.4,0-51.28,39.88-81.33,100.49-81.33,40.93,0,73,12.44,97.39,37.82l-42,54.39c-17.61-15-35.74-22.27-54.91-22.27-11.91,0-18.13,3.1-18.13,9.84,0,5.7,5.18,9.32,17.61,14l25.9,10.36c51.8,20.72,75.63,40.4,75.63,81.33,0,26.41-9.84,47.65-30,63.19-20.2,15-45.59,22.8-77.19,22.8-46.1,0-87-18.13-111.37-49.73Z"/><path d="M2386.83,781.91V856.5a222,222,0,0,1-52.32,6.22c-73,0-114-35.23-114-105.16V672.08h-39.37V597.49h39.37V535.33h89.1v62.16h69.41v74.59h-69.41v76.67c0,24.87,11.91,34.19,44.55,34.19Z"/><path d="M2504.94,758.08c9.85,19.68,29,29.52,58,29.52,23.31,0,45.59-6.73,67.86-20.2L2662.94,828c-30.56,23.31-65.27,34.71-103.09,34.71-84.43,0-145.56-59.06-145.56-135.72,0-76.15,61.13-135.73,138.31-135.73,74.6,0,123.81,56,123.81,122.77a173.63,173.63,0,0,1-5.7,44Zm87-58c-.52-23.31-19.68-38.85-43-38.85-22.28,0-40.41,14-47.14,38.85Z"/><path d="M2799.18,758.08c9.84,19.68,29,29.52,58,29.52,23.31,0,45.58-6.73,67.86-20.2L2957.18,828c-30.57,23.31-65.27,34.71-103.09,34.71-84.44,0-145.56-59.06-145.56-135.72,0-76.15,61.12-135.73,138.31-135.73,74.59,0,123.81,56,123.81,122.77a174.08,174.08,0,0,1-5.7,44Zm87-58c-.52-23.31-19.69-38.85-43-38.85-22.27,0-40.4,14-47.14,38.85Z"/><path d="M3428.06,856.5H3339V709.9c0-24.35-14.51-38.33-36.78-38.33-21.24,0-35.75,14-35.75,38.33V856.5h-89.1V709.9c0-24.35-14.5-38.33-36.78-38.33-21.23,0-35.74,14-35.74,38.33V856.5h-89.1v-259H3097v20.2c18.65-17.61,42.48-26.42,71-26.42,32.12,0,57,10.88,75.11,33.16,20.72-20.72,51.29-33.16,85-33.16,61.64,0,100,41.45,100,105.68Z"/></svg>