<svg id="Layer_1" data-name="Layer 1" xmlns="http://www.w3.org/2000/svg" viewBox="0 0 4236.1 1758.54"><defs><style>.cls-1{fill:#d08aff;}</style></defs><title>logo-alternative</title><path class="cls-1" d="M1907.37,49.15V1411.56H772.74l-432.14,347v-347H0V49.15ZM136.24,1275.32h340.6v198l249.07-198H1771.13V185.39H136.24ZM1498.65,526V662.23H408.72V526ZM1226.17,798.47V934.71H408.72V798.47Z"/><path d="M2085.74,49.15h93.92v360.4h-93.92Z"/><path d="M2510.58,409.55h-93.93V255c0-24-16.38-40.4-39.86-40.4S2337.47,231,2337.47,255V409.55h-93.92v-273h85.73v22.39c20.21-19.12,45.87-28.95,77-28.95,63.34,0,104.3,43.69,104.3,111.4Z"/><path d="M2836.57,409.55h-93.92V255c0-24-16.38-40.4-39.86-40.4S2663.47,231,2663.47,255V409.55h-93.92V0h93.92V155.63c19.11-16.93,43.14-25.67,71-25.67,60.61,0,102.11,44.78,102.11,111.4Z"/><path d="M3030.42,130c81.37-1.63,150.72,65,149.08,143.07,1.64,78.09-67.71,144.71-149.08,143.07-81.36,1.64-150.17-65-148.53-143.07C2880.25,195,2949.06,128.33,3030.42,130Zm.55,86.28c-31.13,0-53,23.48-53,56.79,0,34.41,21.84,56.8,53,56.8,30.58,0,52.42-24,52.42-56.8S3061,216.24,3031,216.24Z"/><path d="M3224.82,136.52h93.93V290c0,23.48,16.38,39.87,39.86,39.87,22.39,0,39.32-16.39,39.32-39.87V136.52h93.92v145.8c0,80.27-56.24,133.78-133.24,133.78s-133.79-53.51-133.79-133.78Z"/><path d="M3832.05,0V409.55h-85.74V381.16c-16.92,23.48-43.14,34.94-78.08,34.94-76.45,0-131.06-59.52-131.06-142.52S3592.87,130,3668.23,130c28.94,0,51.87,8.2,69.89,25.12V0ZM3686.79,215.15c-28.94,0-53.51,21.3-53.51,57.88s23.48,57.89,53.51,57.89c28.94,0,53-20.21,53-57.34S3715.73,215.15,3686.79,215.15Z"/><path d="M2253.93,914.54H2085.74V554.14h130c69.35,0,121.77,43.68,121.77,106.48,0,24-7.1,44.23-21.84,60.61,37.68,15.29,60.07,44.78,60.07,86.28C2375.7,869.77,2323.28,914.54,2253.93,914.54Zm-78.09-281.22v63.34h33.85c22.39,0,36-12.56,36-31.67s-13.65-31.67-36-31.67ZM2247.92,772h-72.08v63.34h72.08c22.39,0,36-10.37,36-31.67S2270.31,772,2247.92,772Z"/><path d="M2502.93,810.79c10.38,20.75,30.58,31.13,61.16,31.13,24.57,0,48-7.1,71.53-21.3l33.86,63.89c-32.22,24.57-68.8,36.59-108.67,36.59-89,0-153.44-62.26-153.44-143.07,0-80.28,64.43-143.07,145.8-143.07,78.63,0,130.51,59,130.51,129.41a183.26,183.26,0,0,1-6,46.42Zm91.74-61.16c-.55-24.57-20.75-41-45.32-41-23.48,0-42.6,14.74-49.7,41Z"/><path d="M2998.21,914.54h-93.92V760c0-24-16.38-40.41-39.86-40.41S2825.11,736,2825.11,760V914.54h-93.92V505h93.92V660.62c19.11-16.93,43.14-25.66,71-25.66,60.61,0,102.11,44.77,102.11,111.39Z"/><path d="M3139.09,810.79c10.38,20.75,30.58,31.13,61.16,31.13,24.58,0,48.06-7.1,71.54-21.3l33.86,63.89c-32.22,24.57-68.81,36.59-108.67,36.59-89,0-153.45-62.26-153.45-143.07,0-80.28,64.44-143.07,145.8-143.07,78.64,0,130.51,59,130.51,129.41a183.26,183.26,0,0,1-6,46.42Zm91.74-61.16c-.54-24.57-20.75-41-45.32-41-23.48,0-42.59,14.74-49.69,41Z"/><path d="M3449.26,810.79c10.37,20.75,30.58,31.13,61.16,31.13,24.57,0,48-7.1,71.53-21.3l33.86,63.89c-32.22,24.57-68.8,36.59-108.67,36.59-89,0-153.44-62.26-153.44-143.07,0-80.28,64.43-143.07,145.8-143.07,78.63,0,130.51,59,130.51,129.41a183.26,183.26,0,0,1-6,46.42ZM3541,749.63c-.55-24.57-20.75-41-45.32-41-23.49,0-42.6,14.74-49.7,41Z"/><path d="M3858.81,724.51h-22.39c-43.14,0-65,19.66-65,65.53v124.5h-93.92v-273h85.73v28.94c16.93-21.3,40.95-33.31,68.8-33.31a83.3,83.3,0,0,1,26.76,4.37Z"/><path d="M2133.19,1290.91c21.29,28.39,43.68,46.41,80.27,46.41,24.57,0,37.13-8.73,37.13-26.21,0-15.83-8.19-20.75-36.59-33.31l-37.13-16.38c-59.52-26.21-91.19-60.07-91.19-108.67,0-63.89,52.42-106.48,126.14-106.48,59.52,0,101.57,28.39,123.41,72.63l-62.8,48c-17.47-26.21-33.85-38.22-59.52-38.22-19.66,0-32.22,7.64-32.22,22.93,0,13.11,7.65,20.2,31.13,29.49l41.5,17.47c62.8,26.21,92.29,57.89,92.29,108.67,0,69.9-57.34,112.49-132.15,112.49-65,0-117.41-31.13-143.62-80.82Z"/><path d="M2674.34,1140.19,2546,1428c-27.85,61.71-62.8,90.1-119.05,90.1a222.1,222.1,0,0,1-52.42-6.55v-78.63c17.47.54,27.85,1.09,31.67,1.09,25.67,0,42.05-6,53.52-32.22l4.37-9.28-99.94-252.29h99.94l52.42,153.45L2575,1140.19Z"/><path d="M2716.93,1311.66c23.48,22.39,48.6,33.85,75.36,33.85,15.84,0,24-3.82,24-12,0-6-4.37-8.74-15.84-13.65l-30.58-12.56c-54.06-21.84-79.18-44.78-79.18-87.92,0-54.06,42.05-85.73,105.94-85.73,43.14,0,77,13.11,102.66,39.86l-44.23,57.34c-18.57-15.84-37.68-23.48-57.89-23.48-12.55,0-19.11,3.28-19.11,10.37,0,6,5.46,9.83,18.57,14.75l27.3,10.92c54.61,21.84,79.73,42.59,79.73,85.73,0,27.85-10.38,50.24-31.67,66.62-21.3,15.84-48.06,24-81.37,24-48.6,0-91.74-19.11-117.4-52.42Z"/><path d="M3138.5,1334.59v78.64a234.35,234.35,0,0,1-55.16,6.55c-77,0-120.13-37.13-120.13-110.85v-90.1h-41.5v-78.64h41.5v-65.53h93.92v65.53h73.18v78.64h-73.18v80.81c0,26.22,12.56,36,47,36Z"/><path d="M3263,1309.47c10.38,20.75,30.58,31.13,61.16,31.13,24.58,0,48.06-7.1,71.54-21.3l33.85,63.89c-32.21,24.58-68.8,36.59-108.66,36.59-89,0-153.45-62.25-153.45-143.07,0-80.27,64.44-143.07,145.8-143.07,78.64,0,130.51,59,130.51,129.42a183.24,183.24,0,0,1-6,46.41Zm91.74-61.16c-.54-24.57-20.75-41-45.32-41-23.48,0-42.59,14.74-49.69,41Z"/><path d="M3573.17,1309.47c10.37,20.75,30.58,31.13,61.16,31.13,24.57,0,48.05-7.1,71.53-21.3l33.86,63.89c-32.22,24.58-68.8,36.59-108.67,36.59-89,0-153.44-62.25-153.44-143.07,0-80.27,64.43-143.07,145.8-143.07,78.63,0,130.51,59,130.51,129.42a183.24,183.24,0,0,1-6,46.41Zm91.74-61.16c-.55-24.57-20.75-41-45.32-41-23.49,0-42.6,14.74-49.7,41Z"/><path d="M4236.1,1413.23h-93.93V1258.69c0-25.67-15.29-40.41-38.77-40.41-22.39,0-37.68,14.74-37.68,40.41v154.54H3971.8V1258.69c0-25.67-15.29-40.41-38.77-40.41-22.39,0-37.68,14.74-37.68,40.41v154.54h-93.93v-273h85.74v21.3c19.66-18.57,44.77-27.85,74.81-27.85,33.86,0,60.07,11.47,79.18,34.95,21.84-21.84,54.06-34.95,89.55-34.95,65,0,105.4,43.69,105.4,111.4Z"/></svg>