<svg id="Layer_1" data-name="Layer 1" xmlns="http://www.w3.org/2000/svg" viewBox="0 0 6878.27 512"><defs><style>.cls-1{fill:#d08aff;}</style></defs><title>logo</title><path class="cls-1" d="M571.3,0V408.07H231.45L102,512V408.07H0V0ZM40.81,367.26h102v59.3l74.6-59.3H530.49V40.81H40.81ZM448.88,142.82v40.81H122.42V142.82Zm-81.62,81.62v40.81H122.42V224.44Z"/><path d="M782.23,48.42h93.92v360.4H782.23Z"/><path d="M1207.07,408.82h-93.92V254.29c0-24-16.39-40.41-39.87-40.41S1034,230.26,1034,254.29V408.82H940v-273h85.73v22.39c20.21-19.11,45.87-28.94,77-28.94,63.34,0,104.3,43.68,104.3,111.39Z"/><path d="M1533.07,408.82h-93.93V254.29c0-24-16.38-40.41-39.86-40.41S1360,230.26,1360,254.29V408.82H1266V-.73H1360V154.9c19.12-16.93,43.14-25.66,71-25.66,60.62,0,102.12,44.77,102.12,111.39Z"/><path d="M1726.92,129.24c81.36-1.64,150.71,65,149.07,143.07,1.64,78.08-67.71,144.7-149.07,143.07-81.37,1.63-150.17-65-148.53-143.07C1576.75,194.22,1645.55,127.6,1726.92,129.24Zm.54,86.28c-31.12,0-53,23.48-53,56.79,0,34.4,21.85,56.79,53,56.79,30.58,0,52.42-24,52.42-56.79S1757.49,215.52,1727.46,215.52Z"/><path d="M1921.32,135.79h93.92V289.24c0,23.48,16.38,39.86,39.86,39.86,22.39,0,39.32-16.38,39.32-39.86V135.79h93.92v145.8c0,80.27-56.24,133.79-133.24,133.79s-133.78-53.52-133.78-133.79Z"/><path d="M2528.54-.73V408.82h-85.73V380.43c-16.93,23.48-43.14,34.95-78.09,34.95-76.45,0-131.06-59.52-131.06-142.53s55.7-143.61,131.06-143.61c28.94,0,51.88,8.19,69.9,25.12V-.73ZM2383.29,214.42c-28.95,0-53.52,21.3-53.52,57.89s23.48,57.88,53.52,57.88c28.94,0,53-20.2,53-57.34S2412.23,214.42,2383.29,214.42Z"/><path d="M2916.25,408.82H2748.06V48.42h130c69.35,0,121.77,43.68,121.77,106.48,0,24-7.1,44.23-21.84,60.62,37.68,15.29,60.07,44.77,60.07,86.27C3038,364.05,2985.6,408.82,2916.25,408.82ZM2838.16,127.6v63.34H2872c22.39,0,36-12.56,36-31.67s-13.65-31.67-36-31.67Zm72.09,138.7h-72.09v63.34h72.09c22.38,0,36-10.37,36-31.67S2932.63,266.3,2910.25,266.3Z"/><path d="M3165.26,305.07c10.37,20.75,30.58,31.13,61.16,31.13,24.57,0,48-7.1,71.53-21.3l33.86,63.89c-32.22,24.57-68.81,36.59-108.67,36.59-89,0-153.44-62.25-153.44-143.07,0-80.28,64.43-143.07,145.8-143.07,78.63,0,130.51,59,130.51,129.41a183.26,183.26,0,0,1-6,46.42ZM3257,243.91c-.55-24.57-20.75-40.95-45.33-40.95-23.48,0-42.59,14.74-49.69,40.95Z"/><path d="M3660.54,408.82h-93.92V254.29c0-24-16.38-40.41-39.87-40.41s-39.31,16.38-39.31,40.41V408.82h-93.93V-.73h93.93V154.9c19.11-16.93,43.14-25.66,71-25.66,60.61,0,102.11,44.77,102.11,111.39Z"/><path d="M3801.42,305.07c10.38,20.75,30.58,31.13,61.16,31.13,24.57,0,48.06-7.1,71.54-21.3L3968,378.79c-32.22,24.57-68.8,36.59-108.67,36.59-89,0-153.44-62.25-153.44-143.07,0-80.28,64.44-143.07,145.8-143.07,78.63,0,130.51,59,130.51,129.41a182.81,182.81,0,0,1-6,46.42Zm91.74-61.16c-.55-24.57-20.75-40.95-45.32-40.95-23.48,0-42.6,14.74-49.69,40.95Z"/><path d="M4111.59,305.07c10.37,20.75,30.58,31.13,61.16,31.13,24.57,0,48.05-7.1,71.53-21.3l33.86,63.89c-32.22,24.57-68.81,36.59-108.67,36.59-89,0-153.44-62.25-153.44-143.07,0-80.28,64.43-143.07,145.79-143.07,78.64,0,130.52,59,130.52,129.41a183.26,183.26,0,0,1-6,46.42Zm91.74-61.16c-.55-24.57-20.75-40.95-45.33-40.95-23.48,0-42.59,14.74-49.69,40.95Z"/><path d="M4521.14,218.79h-22.39c-43.14,0-65,19.66-65,65.53v124.5h-93.93v-273h85.74v28.94c16.92-21.3,40.95-33.31,68.8-33.31a83.3,83.3,0,0,1,26.76,4.37Z"/><path d="M4759.23,286.5c21.29,28.4,43.68,46.42,80.27,46.42,24.57,0,37.13-8.74,37.13-26.21,0-15.84-8.19-20.75-36.59-33.31L4802.91,257c-59.52-26.21-91.19-60.07-91.19-108.67,0-63.89,52.42-106.48,126.14-106.48,59.52,0,101.57,28.39,123.41,72.62l-62.8,48.06c-17.47-26.21-33.85-38.23-59.52-38.23-19.66,0-32.22,7.65-32.22,22.94,0,13.1,7.65,20.2,31.13,29.49l41.5,17.47c62.8,26.21,92.29,57.88,92.29,108.67,0,69.89-57.34,112.49-132.15,112.49-65,0-117.41-31.13-143.62-80.82Z"/><path d="M5300.38,135.79,5172.05,423.57c-27.84,61.7-62.79,90.1-119,90.1a222.1,222.1,0,0,1-52.42-6.55V428.48c17.47.55,27.85,1.09,31.67,1.09,25.67,0,42.05-6,53.52-32.21l4.36-9.29-99.93-252.28h99.93l52.43,153.45L5201,135.79Z"/><path d="M5343,307.26c23.48,22.38,48.6,33.85,75.36,33.85,15.84,0,24-3.82,24-12,0-6-4.37-8.74-15.84-13.65l-30.58-12.56c-54.06-21.85-79.18-44.78-79.18-87.92,0-54.06,42.05-85.73,105.94-85.73,43.14,0,77,13.1,102.66,39.86l-44.23,57.34c-18.57-15.84-37.68-23.48-57.89-23.48-12.56,0-19.11,3.27-19.11,10.37,0,6,5.46,9.83,18.57,14.75L5450,239c54.61,21.84,79.73,42.59,79.73,85.73,0,27.85-10.38,50.24-31.67,66.62-21.3,15.84-48.06,24-81.37,24-48.6,0-91.74-19.12-117.4-52.43Z"/><path d="M5764.54,330.19v78.63a234.36,234.36,0,0,1-55.16,6.56c-77,0-120.13-37.14-120.13-110.86v-90.1h-41.5V135.79h41.5V70.26h93.92v65.53h73.17v78.63h-73.17v80.82c0,26.21,12.56,36,47,36Z"/><path d="M5889,305.07c10.38,20.75,30.58,31.13,61.16,31.13,24.58,0,48.06-7.1,71.54-21.3l33.85,63.89c-32.21,24.57-68.8,36.59-108.66,36.59-89,0-153.45-62.25-153.45-143.07,0-80.28,64.44-143.07,145.8-143.07,78.63,0,130.51,59,130.51,129.41a182.81,182.81,0,0,1-6,46.42Zm91.74-61.16c-.54-24.57-20.75-40.95-45.32-40.95-23.48,0-42.6,14.74-49.69,40.95Z"/><path d="M6199.21,305.07c10.37,20.75,30.58,31.13,61.16,31.13,24.57,0,48.05-7.1,71.53-21.3l33.86,63.89c-32.22,24.57-68.81,36.59-108.67,36.59-89,0-153.44-62.25-153.44-143.07,0-80.28,64.43-143.07,145.8-143.07,78.63,0,130.51,59,130.51,129.41a183.26,183.26,0,0,1-6,46.42ZM6291,243.91c-.55-24.57-20.75-40.95-45.33-40.95-23.48,0-42.59,14.74-49.69,40.95Z"/><path d="M6862.13,408.82h-93.92V254.29c0-25.67-15.29-40.41-38.77-40.41-22.39,0-37.68,14.74-37.68,40.41V408.82h-93.92V254.29c0-25.67-15.29-40.41-38.77-40.41-22.39,0-37.68,14.74-37.68,40.41V408.82h-93.93v-273h85.74v21.3c19.66-18.57,44.77-27.85,74.81-27.85,33.85,0,60.07,11.46,79.18,34.95,21.84-21.85,54.06-34.95,89.55-34.95,65,0,105.39,43.68,105.39,111.39Z"/></svg>