<?xml version="1.0" standalone="no"?>
<!DOCTYPE svg PUBLIC "-//W3C//DTD SVG 20010904//EN"
 "http://www.w3.org/TR/2001/REC-SVG-20010904/DTD/svg10.dtd">
<svg version="1.0" xmlns="http://www.w3.org/2000/svg"
 width="1908.000000pt" height="1908.000000pt" viewBox="0 0 1908.000000 1908.000000"
 preserveAspectRatio="xMidYMid meet">
<metadata>
Created by potrace 1.14, written by Peter Selinger 2001-2017
</metadata>
<g transform="translate(0.000000,1908.000000) scale(0.100000,-0.100000)"
fill="#000000" stroke="none">
<path d="M2 11268 l3 -6813 1660 -2 c913 -1 1678 -2 1700 -3 l40 0 0 -1730 c0
-951 2 -1730 5 -1730 4 0 1095 872 1245 995 22 18 114 92 205 165 220 176 212
169 395 317 245 197 1003 805 1255 1007 124 99 227 183 230 186 3 3 151 122
330 265 179 143 334 267 345 277 11 9 85 69 165 132 136 109 148 116 190 116
25 1 2578 2 5675 3 l5630 2 0 6810 0 6810 -9538 3 -9537 2 2 -6812z m17706 -1
l2 -5447 -27 -1 c-16 0 -2368 -1 -5228 -1 l-5200 -1 -101 -81 c-56 -45 -217
-173 -359 -286 -143 -113 -417 -331 -611 -485 -193 -154 -423 -337 -510 -406
-619 -491 -815 -647 -857 -681 l-47 -39 0 989 0 989 -1672 1 c-920 0 -1687 1
-1704 1 l-31 1 2 5448 c1 2996 2 5447 3 5447 1 0 3677 0 8170 0 l8167 0 3
-5448z"/>
<path d="M4115 13312 l-30 -3 0 -679 0 -680 25 -1 c32 0 10733 0 10816 0 l62
1 0 680 0 680 -141 0 c-684 3 -10709 4 -10732 2z"/>
<path d="M4087 10582 c-2 -4 -3 -311 -3 -682 l1 -675 4088 -1 4087 -1 1 26 c1
32 1 1323 0 1333 -1 9 -8170 9 -8174 0z"/>
</g>
</svg>
